<svg viewBox="0 0 821 111" fill="none" xmlns="http://www.w3.org/2000/svg">
<path d="M316.096 23.8666L199.015 23.6766C189.195 23.6566 180.616 29.1966 175.786 37.4466C169.006 49.0166 169.136 63.9966 176.776 75.2366C186.186 89.0966 206.205 90.9566 218.515 80.1166C224.395 74.9366 227.056 67.9866 228.096 60.4166C229.506 49.6966 226.646 39.3766 219.006 31.1166L249.656 30.9266C257.396 48.2966 256.756 68.5967 246.946 85.0367C236.446 102.647 217.686 111.377 197.526 110.747C168.886 109.857 146.206 88.5066 144.646 59.7566C143.906 46.0466 146.976 32.6266 155.596 21.4366C165.306 8.83664 180.246 0.606644 196.786 0.656644L319.496 1.04664C331.376 1.08664 341.905 6.46664 349.135 14.9966C355.395 24.4666 356.865 35.2866 354.955 46.2866C352.905 58.0866 345.126 66.9467 333.696 70.6967L359.546 109.677L329.635 109.867L292.635 53.0766L315.736 52.7466C323.556 52.6366 328.766 47.1666 329.416 39.3466C330.036 31.8666 325.145 23.8566 316.085 23.8466L316.096 23.8666Z" fill="url(#paint0_linear_1_15)"/>
<path d="M393.116 87.4566L506.056 87.3666C513.486 87.3666 517.896 81.6566 517.166 75.3666C516.426 68.9166 510.066 64.2066 503.466 66.1266L483.206 72.0166L482.906 80.1466L457.206 80.2366L457.135 30.8866L482.916 30.7966L483.135 50.0066L510.866 41.8666C515.776 40.4266 518.106 36.2866 516.856 31.0266C515.776 26.4866 511.146 23.2566 506.036 23.2366L457.135 22.9766L457.286 0.966644L511.466 1.15665C521.536 1.19665 530.526 5.30665 537.106 12.5166C546.776 24.9666 544.666 48.0466 528.796 55.3866C538.146 59.9866 542.716 68.9667 543.156 79.2267C544.006 99.1567 528.505 109.247 509.885 110.027L369.646 110.057L369.616 44.3866L420.926 44.2866L421.056 66.3466L393.106 66.6266V87.4966L393.116 87.4566Z" fill="url(#paint1_linear_1_15)"/>
<path d="M102.666 86.9067C112.356 85.9567 119.196 80.6766 125.126 73.8966L142.326 90.6967C129.676 104.927 116.966 110.947 97.8455 110.797C66.9255 110.537 43.9955 85.6166 44.0655 55.2766C44.1355 23.0066 69.5355 -1.55335 101.976 0.0766516C116.976 0.836652 131.306 6.34664 141.196 18.3166L125.076 36.6766C122.216 35.1466 120.656 32.3667 118.066 30.2967C110.876 24.5367 102.086 22.1166 92.4455 24.3966C73.1455 28.9566 65.7555 52.3066 73.9055 70.6366C78.8955 81.8566 90.0655 88.1566 102.676 86.9166L102.666 86.9067Z" fill="url(#paint2_linear_1_15)"/>
<path d="M652.156 1.22664L611.986 66.5367L611.856 109.967L585.716 109.957L585.656 66.4666L544.956 1.10664L575.216 1.00664L599.076 42.0366L623.056 0.916641L652.156 1.22664Z" fill="url(#paint3_linear_1_15)"/>
<path d="M709.076 109.737L682.966 109.977L682.856 24.1466L653.906 23.9566L653.846 0.966644L738.266 0.956635L738.206 24.0366L709.076 24.2966V109.737Z" fill="url(#paint4_linear_1_15)"/>
<path d="M772.176 87.3866L820.836 87.4767V109.957L748.826 109.987L748.816 44.2666L799.926 44.2966L799.995 66.4566L772.226 66.5566L772.176 87.3866Z" fill="url(#paint5_linear_1_15)"/>
<path d="M292.246 109.577L266.006 110.027L265.926 31.0566L292.156 31.0166L292.246 109.577Z" fill="url(#paint6_linear_1_15)"/>
<path d="M27.5555 109.607L1.54553 110.017L1.51553 34.7566L27.4655 34.7766L27.5555 109.607Z" fill="url(#paint7_linear_1_15)"/>
<path d="M820.016 23.3966L748.855 23.4066L748.766 0.966644L819.926 0.896637L820.016 23.3966Z" fill="url(#paint8_linear_1_15)"/>
<path d="M441.356 23.3966L369.746 23.4466L369.696 0.936646H441.286L441.356 23.3966Z" fill="url(#paint9_linear_1_15)"/>
<path d="M20.7555 28.0066C14.5255 31.1266 7.41551 29.0466 3.56551 24.4566C-0.824488 19.2266 -1.10448 12.2266 2.41552 6.81663C5.93552 1.40663 12.6455 -1.12337 19.1955 1.06663C25.0055 3.00663 28.2555 8.18663 28.7555 13.7066C29.2955 19.5766 26.5155 25.1266 20.7555 28.0066Z" fill="url(#paint10_linear_1_15)"/>
<defs>
<linearGradient id="paint0_linear_1_15" x1="144.546" y1="55.7366" x2="359.556" y2="55.7366" gradientUnits="userSpaceOnUse">
<stop stop-color="#006BE0"/>
<stop offset="1" stop-color="#5700AD"/>
</linearGradient>
<linearGradient id="paint1_linear_1_15" x1="369.626" y1="55.4666" x2="543.196" y2="55.4666" gradientUnits="userSpaceOnUse">
<stop stop-color="#006BE0"/>
<stop offset="1" stop-color="#5700AD"/>
</linearGradient>
<linearGradient id="paint2_linear_1_15" x1="44.0555" y1="55.3966" x2="142.326" y2="55.3966" gradientUnits="userSpaceOnUse">
<stop stop-color="#006BE0"/>
<stop offset="1" stop-color="#5700AD"/>
</linearGradient>
<linearGradient id="paint3_linear_1_15" x1="544.956" y1="55.4366" x2="652.156" y2="55.4366" gradientUnits="userSpaceOnUse">
<stop stop-color="#006BE0"/>
<stop offset="1" stop-color="#5700AD"/>
</linearGradient>
<linearGradient id="paint4_linear_1_15" x1="653.846" y1="55.4666" x2="738.266" y2="55.4666" gradientUnits="userSpaceOnUse">
<stop stop-color="#006BE0"/>
<stop offset="1" stop-color="#5700AD"/>
</linearGradient>
<linearGradient id="paint5_linear_1_15" x1="748.816" y1="77.1266" x2="820.836" y2="77.1266" gradientUnits="userSpaceOnUse">
<stop stop-color="#006BE0"/>
<stop offset="1" stop-color="#5700AD"/>
</linearGradient>
<linearGradient id="paint6_linear_1_15" x1="265.926" y1="70.5266" x2="292.246" y2="70.5266" gradientUnits="userSpaceOnUse">
<stop stop-color="#006BE0"/>
<stop offset="1" stop-color="#5700AD"/>
</linearGradient>
<linearGradient id="paint7_linear_1_15" x1="1.51553" y1="72.3866" x2="27.5555" y2="72.3866" gradientUnits="userSpaceOnUse">
<stop stop-color="#006BE0"/>
<stop offset="1" stop-color="#5700AD"/>
</linearGradient>
<linearGradient id="paint8_linear_1_15" x1="748.766" y1="12.1566" x2="820.016" y2="12.1566" gradientUnits="userSpaceOnUse">
<stop stop-color="#006BE0"/>
<stop offset="1" stop-color="#5700AD"/>
</linearGradient>
<linearGradient id="paint9_linear_1_15" x1="369.696" y1="12.1866" x2="441.356" y2="12.1866" gradientUnits="userSpaceOnUse">
<stop stop-color="#006BE0"/>
<stop offset="1" stop-color="#5700AD"/>
</linearGradient>
<linearGradient id="paint10_linear_1_15" x1="-0.00448497" y1="14.8766" x2="28.8255" y2="14.8766" gradientUnits="userSpaceOnUse">
<stop stop-color="#006BE0"/>
<stop offset="1" stop-color="#5700AD"/>
</linearGradient>
</defs>
</svg>
